# File created by Blade
# Date/Time:  Tue Jan 27 18:12:51 2015
#---------------------------------------------------------
:version 1.10
:name HOM
:units
  mass 1.0
  length 1.000000
  angle deg
:documentation
     Acclaim Skeleton File
:root
   axis xyz
   order TX TY TZ RX RY RZ
   position 0.000000 0.000000 0.000000
   orientation 0 0 0
:bonedata
   begin
      id 1
      name Spine_dum
      direction 0.000000 1.000000 0.000000
      length 5.195262
      axis 0.0 0.0 0.0 xyz
   end
   begin
      id 2
      name LeftUpLeg_dum
      direction 1.000000 0.000000 0.000000
      length 3.351363
      axis 0.0 0.0 0.0 xyz
   end
   begin
      id 3
      name RightUpLeg_dum
      direction -1.000000 0.000000 0.000000
      length 3.351363
      axis 0.0 0.0 0.0 xyz
   end
   begin
      id 4
      name Spine
      direction 0.000000 1.000000 0.000000
      length 0.000000
      axis 0.0 0.0 0.0 xyz
      dof rx ry rz
   end
   begin
      id 5
      name Spine_dum1
      direction 0.000000 1.000000 0.000000
      length 15.653875
      axis 0.0 0.0 0.0 xyz
   end
   begin
      id 6
      name Spine_dum2
      direction 0.000000 1.000000 0.000000
      length 10.329768
      axis 0.0 0.0 0.0 xyz
   end
   begin
      id 7
      name Spine_dum3
      direction 0.000000 1.000000 0.000000
      length 10.329768
      axis 0.0 0.0 0.0 xyz
   end
   begin
      id 8
      name Head
      direction 0.000000 1.000000 0.000000
      length 4.527550
      axis 0.0 0.0 0.0 xyz
      dof rx ry rz
   end
   begin
      id 9
      name LeftShoulder
      direction 1.000000 0.000000 0.000000
      length 6.996006
      axis 0.0 0.0 -90.0 xyz
      dof rx ry rz
   end
   begin
      id 10
      name LeftArm
      direction 1.000000 0.000000 0.000000
      length 10.209302
      axis 0.0 0.0 -90.0 xyz
      dof rx ry rz
   end
   begin
      id 11
      name LeftForeArm
      direction 1.000000 0.000000 0.000000
      length 8.563163
      axis 0.0 0.0 -90.0 xyz
      dof ry rz rx
   end
   begin
      id 12
      name LeftHand
      direction 0.000000 0.000000 0.000000
      length 0.000000
      axis 0.0 0.0 -90.0 xyz
      dof rx ry rz
   end
   begin
      id 13
      name LeftHand_dum1
      direction 0.000000 0.000000 0.000000
      length 0.000000
      axis 0.0 0.0 -90.0 xyz
   end
   begin
      id 14
      name LeftHand_dum2
      direction 1.000000 0.000000 0.000000
      length 3.937000
      axis 0.0 0.0 -90.0 xyz
   end
   begin
      id 15
      name LeftHandThumb1
      direction 0.000000 0.000000 1.000000
      length 3.937000
      axis 0.0 0.0 -90.0 xyz
      dof rx rz ry
   end
   begin
      id 16
      name RightShoulder
      direction -1.000000 0.000000 0.000000
      length 6.996006
      axis 0.0 0.0 90.0 xyz
      dof rx ry rz
   end
   begin
      id 17
      name RightArm
      direction -1.000000 0.000000 0.000000
      length 10.209302
      axis 0.0 0.0 90.0 xyz
      dof rx ry rz
   end
   begin
      id 18
      name RightForeArm
      direction -1.000000 0.000000 0.000000
      length 8.563163
      axis 0.0 0.0 90.0 xyz
      dof ry rz rx
   end
   begin
      id 19
      name RightHand
      direction 0.000000 0.000000 0.000000
      length 0.000000
      axis 0.0 0.0 90.0 xyz
      dof rx ry rz
   end
   begin
      id 20
      name RightHand_dum1
      direction 0.000000 0.000000 0.000000
      length 0.000000
      axis 0.0 0.0 90.0 xyz
   end
   begin
      id 21
      name RightHand_dum2
      direction -1.000000 0.000000 0.000000
      length 3.937000
      axis 0.0 0.0 90.0 xyz
   end
   begin
      id 22
      name RightHandThumb1
      direction 0.000000 0.000000 1.000000
      length 3.937000
      axis 0.0 0.0 90.0 xyz
      dof rx rz ry
   end
   begin
      id 23
      name LeftUpLeg
      direction 0.000000 -1.000000 0.000000
      length 16.346831
      axis 0.0 0.0 0.0 xyz
      dof rx ry rz
   end
   begin
      id 24
      name LeftLeg
      direction 0.000000 -1.000000 0.000000
      length 13.959795
      axis 0.0 0.0 0.0 xyz
      dof rx ry rz
   end
   begin
      id 25
      name LeftFoot
      direction 0.000000 -0.258819 0.965926
      length 5.165550
      axis 15.0 0.0 0.0 xyz
      dof rx ry rz
   end
   begin
      id 26
      name LeftToeBase
      direction 0.000000 0.000000 1.000000
      length 2.952750
      axis 0.0 0.0 0.0 xyz
      dof rx ry rz
   end
   begin
      id 27
      name RightUpLeg
      direction 0.000000 -1.000000 0.000000
      length 16.346831
      axis 0.0 0.0 0.0 xyz
      dof rx ry rz
   end
   begin
      id 28
      name RightLeg
      direction 0.000000 -1.000000 0.000000
      length 13.959795
      axis 0.0 0.0 0.0 xyz
      dof rx ry rz
   end
   begin
      id 29
      name RightFoot
      direction 0.000000 -0.258819 0.965926
      length 5.165550
      axis 15.0 0.0 0.0 xyz
      dof rx ry rz
   end
   begin
      id 30
      name RightToeBase
      direction 0.000000 0.000000 1.000000
      length 2.952750
      axis 0.0 0.0 0.0 xyz
      dof rx ry rz
   end
:hierarchy
   begin
      root Spine_dum LeftUpLeg_dum RightUpLeg_dum
      Spine_dum Spine
      LeftUpLeg_dum LeftUpLeg
      RightUpLeg_dum RightUpLeg
      Spine Spine_dum1 Spine_dum2 Spine_dum3
      Spine_dum1 Head
      Spine_dum2 LeftShoulder
      Spine_dum3 RightShoulder
      LeftShoulder LeftArm
      LeftArm LeftForeArm
      LeftForeArm LeftHand
      LeftHand LeftHand_dum1 LeftHand_dum2
      LeftHand_dum1 LeftHandThumb1
      RightShoulder RightArm
      RightArm RightForeArm
      RightForeArm RightHand
      RightHand RightHand_dum1 RightHand_dum2
      RightHand_dum1 RightHandThumb1
      LeftUpLeg LeftLeg
      LeftLeg LeftFoot
      LeftFoot LeftToeBase
      RightUpLeg RightLeg
      RightLeg RightFoot
      RightFoot RightToeBase
   end

# File created by Blade
# Date/Time:  Tue Jan 27 18:12:42 2015
# Frame Rate: 120.000 fps
#------------------------------------------------------
:FULLY-SPECIFIED
:DEGREES
1052
root -1.193843 31.796269 -6.504087 5.881566 16.935141 4.809543
Spine -7.742122 3.111757 -2.794351
Head 9.332028 -7.750178 1.604927
LeftShoulder -9.708049 16.756479 4.148514
LeftArm 27.286277 41.369640 -67.588954
LeftForeArm -0.400509 -0.000000 14.975007
LeftHand -10.222401 -0.000000 -5.150618
LeftHandThumb1 -26.253704 0.000000 33.147579
RightShoulder 10.923530 25.703538 -12.716822
RightArm 20.111995 13.213569 112.366825
RightForeArm 17.290271 -0.000000 103.410422
RightHand -9.159161 -0.000000 3.388670
RightHandThumb1 -24.326973 -0.000000 -32.862282
LeftUpLeg -2.284818 -6.464469 -1.979506
LeftLeg 1.760954 -0.000000 -0.000000
LeftFoot -15.894231 13.028858 -23.486605
LeftToeBase 8.471062 -0.000000 -0.000000
RightUpLeg 3.640388 -10.110559 -4.813222
RightLeg -3.350604 -0.000000 0.000000
RightFoot -17.665561 -17.350016 11.070317
RightToeBase 5.404616 -0.000000 -0.000000
1053
root -1.193298 31.796523 -6.502851 5.870142 16.846686 4.796669
Spine -7.755289 3.066374 -2.809371
Head 9.383919 -7.748314 1.684627
LeftShoulder -9.745346 16.767678 4.165455
LeftArm 27.242903 41.364686 -67.635294
LeftForeArm -0.514281 -0.000000 14.949737
LeftHand -10.198078 -0.000000 -5.193012
LeftHandThumb1 -26.253704 0.000000 33.147579
RightShoulder 10.843701 25.647723 -12.779879
RightArm 20.232209 13.111415 111.959675
RightForeArm 17.210739 -0.000000 103.205516
RightHand -9.149866 -0.000000 3.479611
RightHandThumb1 -24.326973 -0.000000 -32.862282
LeftUpLeg -2.263324 -6.403689 -1.977382
LeftLeg 1.754860 -0.000000 -0.000000
LeftFoot -15.927015 13.027163 -23.532850
LeftToeBase 8.526040 -0.000000 -0.000000
RightUpLeg 3.630666 -10.077873 -4.813088
RightLeg -3.348232 -0.000000 0.000000
RightFoot -17.635225 -17.296413 11.043466
RightToeBase 5.351220 -0.000000 -0.000000
1054
root -1.190089 31.796722 -6.500431 5.851840 16.746414 4.784690
Spine -7.766375 3.024140 -2.816448
Head 9.432122 -7.771537 1.750870
LeftShoulder -9.792968 16.778198 4.169386
LeftArm 27.192176 41.362922 -67.683118
LeftForeArm -0.623254 -0.000000 14.931460
LeftHand -10.243467 -0.000000 -5.303137
LeftHandThumb1 -26.253704 0.000000 33.147579
RightShoulder 10.759628 25.534527 -12.868210
RightArm 20.407358 12.997240 111.510081
RightForeArm 17.075257 -0.000000 102.996220
RightHand -9.159482 -0.000000 3.692760
RightHandThumb1 -24.326973 -0.000000 -32.862282
LeftUpLeg -2.226058 -6.348739 -1.984339
LeftLeg 1.737535 -0.000000 -0.000000
LeftFoot -15.953001 13.083538 -23.535569
LeftToeBase 8.499744 -0.000000 -0.000000
RightUpLeg 3.627032 -10.035866 -4.819159
RightLeg -3.336317 -0.000000 0.000000
RightFoot -17.631253 -17.231498 11.048754
RightToeBase 5.407678 -0.000000 -0.000000
1055
root -1.189508 31.797228 -6.499664 5.838699 16.644456 4.772294
Spine -7.775075 3.002011 -2.837137
Head 9.474704 -7.828804 1.826608
LeftShoulder -9.833359 16.791279 4.177234
LeftArm 27.187713 41.372998 -67.692036
LeftForeArm -0.705145 0.000000 14.893227
LeftHand -10.378858 -0.000000 -5.750258
LeftHandThumb1 -26.253704 0.000000 33.147579
RightShoulder 10.636130 25.509068 -12.928948
RightArm 20.508958 12.899906 110.977025
RightForeArm 16.951177 -0.000000 102.753393
RightHand -9.258045 -0.000000 3.651691
RightHandThumb1 -24.326973 -0.000000 -32.862282
LeftUpLeg -2.206713 -6.289172 -1.984688
LeftLeg 1.735756 -0.000000 -0.000000
LeftFoot -15.968759 13.124493 -23.530788
LeftToeBase 8.501925 -0.000000 -0.000000
RightUpLeg 3.617077 -9.973037 -4.818312
RightLeg -3.336918 -0.000000 0.000000
RightFoot -17.604432 -17.202532 11.027467
RightToeBase 5.360625 -0.000000 -0.000000
1056
root -1.189357 31.797187 -6.498397 5.822019 16.547439 4.748274
Spine -7.789376 2.971064 -2.849630
Head 9.528029 -7.879264 1.907511
LeftShoulder -9.879089 16.818204 4.184718
LeftArm 27.190771 41.362611 -67.705995
LeftForeArm -0.821134 0.000000 14.853316
LeftHand -10.402974 -0.000000 -5.816636
LeftHandThumb1 -26.253704 0.000000 33.147579
RightShoulder 10.495827 25.430744 -12.997685
RightArm 20.651711 12.774181 110.393238
RightForeArm 16.806341 0.000000 102.508718
RightHand -9.273460 0.000000 3.797963
RightHandThumb1 -24.326973 -0.000000 -32.862282
LeftUpLeg -2.186186 -6.250011 -1.970881
LeftLeg 1.736666 -0.000000 -0.000000
LeftFoot -16.017696 13.154110 -23.571928
LeftToeBase 8.508284 -0.000000 -0.000000
RightUpLeg 3.607434 -9.934347 -4.805737
RightLeg -3.333341 -0.000000 0.000000
RightFoot -17.577989 -17.145989 11.014311
RightToeBase 5.332005 -0.000000 -0.000000
1057
root -1.188593 31.797845 -6.498776 5.805419 16.451649 4.731923
Spine -7.802394 2.905508 -2.858606
Head 9.585195 -7.927070 1.978264
LeftShoulder -9.945521 16.829059 4.171279
LeftArm 27.149047 41.312692 -67.747524
LeftForeArm -0.894200 -0.000000 14.828737
LeftHand -10.428587 -0.000000 -5.904485
LeftHandThumb1 -26.253704 0.000000 33.147579
RightShoulder 10.400016 25.413107 -13.055648
RightArm 20.729962 12.645345 109.653589
RightForeArm 16.807202 -0.000000 102.252012
RightHand -9.291411 0.000000 3.664387
RightHandThumb1 -24.326973 -0.000000 -32.862282
LeftUpLeg -2.163326 -6.223656 -1.968696
LeftLeg 1.728425 -0.000000 -0.000000
LeftFoot -16.031071 13.239179 -23.522763
LeftToeBase 8.436057 -0.000000 -0.000000
RightUpLeg 3.594302 -9.895694 -4.802480
RightLeg -3.323676 -0.000000 0.000000
RightFoot -17.553213 -17.094451 10.991221
RightToeBase 5.367947 -0.000000 -0.000000
